<?xml version="1.0" encoding="utf-8"?>
<!-- Generated by Mocodo 4.1.2 -->
<svg width="723" height="364" viewBox="0 0 723 364" xmlns="http://www.w3.org/2000/svg">
<rect x="0" y="0" width="723" height="364" fill="#f7f7f7" stroke="none" stroke-width="0"/>

<!-- Association A -->
<g>
	<line x1="179" y1="212" x2="20" y2="68" stroke="#8073ac" stroke-width="2"/>
	<polygon points="135 172.15 122.08 168.54 129.07 166.78 130.13 159.65" fill="#8073ac" stroke-width="0"/>
	<line x1="103" y1="68" x2="20" y2="68" stroke="#8073ac" stroke-width="2"/>
	<g>
		<path d="M17 43 a14 14 90 0 1 14 14 V68 h-22 V57 a14 14 90 0 1 14 -14" fill="#b2abd2" stroke="#b2abd2" stroke-width="0"/>
		<path d="M31 68 v11 a14 14 90 0 1 -14 14 H23 a14 14 90 0 1 -14 -14 V68 H22" fill="#d8daeb" stroke="#d8daeb" stroke-width="0"/>
		<rect x="9" y="43" width="22" height="50" fill="none" rx="14" stroke="#8073ac" stroke-width="2"/>
		<line x1="9" y1="68" x2="31" y2="68" stroke="#8073ac" stroke-width="1"/>
		<text x="16" y="60.75" fill="#000000" font-family="Verdana" font-size="12">a</text>
	</g>
	<text x="109" y="182.57" fill="#b35806" font-family="Verdana" font-size="12">1,1</text>
	<text x="36" y="85" fill="#b35806" font-family="Verdana" font-size="12">0,N</text>
</g>

<!-- Association PEUT_ETRE -->
<g>
	<line x1="255" y1="68" x2="364" y2="68" stroke="#8073ac" stroke-width="2"/>
	<polygon points="295 68 307 62 303 68 307 74" fill="#8073ac" stroke-width="0"/>
	<line x1="364" y1="212" x2="364" y2="68" stroke="#8073ac" stroke-width="2"/>
	<polygon points="364 144 358 132 364 136 370 132" fill="#8073ac" stroke-width="0"/>
	<g>
		<path d="M387 43 a14 14 90 0 1 14 14 V68 h-74 V57 a14 14 90 0 1 14 -14" fill="#b2abd2" stroke="#b2abd2" stroke-width="0"/>
		<path d="M401 68 v11 a14 14 90 0 1 -14 14 H341 a14 14 90 0 1 -14 -14 V68 H74" fill="#d8daeb" stroke="#d8daeb" stroke-width="0"/>
		<rect x="327" y="43" width="74" height="50" fill="none" rx="14" stroke="#8073ac" stroke-width="2"/>
		<line x1="327" y1="68" x2="401" y2="68" stroke="#8073ac" stroke-width="1"/>
		<text x="334" y="60.75" fill="#000000" font-family="Verdana" font-size="12">peut_être</text>
	</g>
	<text x="300" y="85" fill="#b35806" font-family="Verdana" font-size="12">0,N</text>
	<text x="337" y="136" fill="#b35806" font-family="Verdana" font-size="12">0,N</text>
</g>

<!-- Association PEUT_ETRE_DANS -->
<g>
	<line x1="523" y1="68" x2="659" y2="68" stroke="#8073ac" stroke-width="2"/>
	<line x1="364" y1="212" x2="659" y2="68" stroke="#8073ac" stroke-width="2"/>
	<polygon points="410 189.55 418.15 178.89 417.19 186.04 423.42 189.67" fill="#8073ac" stroke-width="0"/>
	<g>
		<path d="M700 43 a14 14 90 0 1 14 14 V68 h-110 V57 a14 14 90 0 1 14 -14" fill="#b2abd2" stroke="#b2abd2" stroke-width="0"/>
		<path d="M714 68 v11 a14 14 90 0 1 -14 14 H618 a14 14 90 0 1 -14 -14 V68 H110" fill="#d8daeb" stroke="#d8daeb" stroke-width="0"/>
		<rect x="604" y="43" width="110" height="50" fill="none" rx="14" stroke="#8073ac" stroke-width="2"/>
		<line x1="604" y1="68" x2="714" y2="68" stroke="#8073ac" stroke-width="1"/>
		<text x="611" y="60.75" fill="#000000" font-family="Verdana" font-size="12">peut_être_dans</text>
	</g>
	<text x="577" y="85" fill="#b35806" font-family="Verdana" font-size="12">0,N</text>
	<text x="415" y="202.73" fill="#b35806" font-family="Verdana" font-size="12">0,1</text>
</g>

<!-- Association PEUT_AVOIR -->
<g>
	<line x1="364" y1="212" x2="255" y2="330" stroke="#8073ac" stroke-width="2"/>
	<polygon points="318 261.8 314.26 274.68 312.57 267.67 305.45 266.54" fill="#8073ac" stroke-width="0"/>
	<line x1="179" y1="212" x2="255" y2="330" stroke="#8073ac" stroke-width="2"/>
	<polygon points="217 271 228.54 277.84 221.33 277.73 218.45 284.34" fill="#8073ac" stroke-width="0"/>
	<g>
		<path d="M281 305 a14 14 90 0 1 14 14 V330 h-80 V319 a14 14 90 0 1 14 -14" fill="#b2abd2" stroke="#b2abd2" stroke-width="0"/>
		<path d="M295 330 v11 a14 14 90 0 1 -14 14 H229 a14 14 90 0 1 -14 -14 V330 H80" fill="#d8daeb" stroke="#d8daeb" stroke-width="0"/>
		<rect x="215" y="305" width="80" height="50" fill="none" rx="14" stroke="#8073ac" stroke-width="2"/>
		<line x1="215" y1="330" x2="295" y2="330" stroke="#8073ac" stroke-width="1"/>
		<text x="222" y="322.75" fill="#000000" font-family="Verdana" font-size="12">peut_avoir</text>
		<text x="222" y="347.8" fill="#000000" font-family="Verdana" font-size="12">quantité</text>
	</g>
	<text x="291" y="260.47" fill="#b35806" font-family="Verdana" font-size="12">0,N</text>
	<text x="194.96" y="288" fill="#b35806" font-family="Verdana" font-size="12">1,N</text>
</g>

<!-- Entity USER -->
<g>
	<g>
		<rect x="63" y="9" width="80" height="25" fill="#fdb863" stroke="none" stroke-width="0" opacity="1"/>
		<rect x="63" y="34" width="80" height="93" fill="#fee0b6" stroke="none" stroke-width="0" opacity="1"/>
		<rect x="63" y="9" width="80" height="118" fill="none" stroke="#e08214" stroke-width="2" opacity="1"/>
		<line x1="63" y1="34" x2="143" y2="34" stroke="#e08214" stroke-width="1"/>
	</g>
	<text x="89" y="26.75" fill="#000000" font-family="Verdana" font-size="12">User</text>
	<text x="68" y="51.8" fill="#000000" font-family="Verdana" font-size="12">num_user</text>
	<line x1="68" y1="54" x2="130" y2="54" stroke="#000000" stroke-width="1"/>
	<text x="68" y="68.8" fill="#000000" font-family="Verdana" font-size="12">name</text>
	<text x="68" y="85.8" fill="#000000" font-family="Verdana" font-size="12">password</text>
	<text x="68" y="102.8" fill="#000000" font-family="Verdana" font-size="12">created_at</text>
	<text x="68" y="119.8" fill="#000000" font-family="Verdana" font-size="12">updated_at</text>
</g>

<!-- Entity TAG -->
<g>
	<g>
		<rect x="215" y="17" width="80" height="25" fill="#fdb863" stroke="none" stroke-width="0" opacity="1"/>
		<rect x="215" y="42" width="80" height="77" fill="#fee0b6" stroke="none" stroke-width="0" opacity="1"/>
		<rect x="215" y="17" width="80" height="102" fill="none" stroke="#e08214" stroke-width="2" opacity="1"/>
		<line x1="215" y1="42" x2="295" y2="42" stroke="#e08214" stroke-width="1"/>
	</g>
	<text x="244" y="34.75" fill="#000000" font-family="Verdana" font-size="12">Tag</text>
	<text x="220" y="59.8" fill="#000000" font-family="Verdana" font-size="12">num_tag</text>
	<line x1="220" y1="62" x2="275" y2="62" stroke="#000000" stroke-width="1"/>
	<text x="220" y="76.8" fill="#000000" font-family="Verdana" font-size="12">name</text>
	<text x="220" y="93.8" fill="#000000" font-family="Verdana" font-size="12">created_at</text>
	<text x="220" y="110.8" fill="#000000" font-family="Verdana" font-size="12">updated_at</text>
</g>

<!-- Entity CATEGORY -->
<g>
	<g>
		<rect x="474" y="17" width="98" height="25" fill="#fdb863" stroke="none" stroke-width="0" opacity="1"/>
		<rect x="474" y="42" width="98" height="77" fill="#fee0b6" stroke="none" stroke-width="0" opacity="1"/>
		<rect x="474" y="17" width="98" height="102" fill="none" stroke="#e08214" stroke-width="2" opacity="1"/>
		<line x1="474" y1="42" x2="572" y2="42" stroke="#e08214" stroke-width="1"/>
	</g>
	<text x="495" y="34.75" fill="#000000" font-family="Verdana" font-size="12">Category</text>
	<text x="479" y="59.8" fill="#000000" font-family="Verdana" font-size="12">num_category</text>
	<line x1="479" y1="62" x2="567" y2="62" stroke="#000000" stroke-width="1"/>
	<text x="479" y="76.8" fill="#000000" font-family="Verdana" font-size="12">name</text>
	<text x="479" y="93.8" fill="#000000" font-family="Verdana" font-size="12">created_at</text>
	<text x="479" y="110.8" fill="#000000" font-family="Verdana" font-size="12">updated_at</text>
</g>

<!-- Entity ORDER -->
<g>
	<g>
		<rect x="135" y="153" width="88" height="25" fill="#fdb863" stroke="none" stroke-width="0" opacity="1"/>
		<rect x="135" y="178" width="88" height="93" fill="#fee0b6" stroke="none" stroke-width="0" opacity="1"/>
		<rect x="135" y="153" width="88" height="118" fill="none" stroke="#e08214" stroke-width="2" opacity="1"/>
		<line x1="135" y1="178" x2="223" y2="178" stroke="#e08214" stroke-width="1"/>
	</g>
	<text x="162" y="170.75" fill="#000000" font-family="Verdana" font-size="12">Order</text>
	<text x="140" y="195.8" fill="#000000" font-family="Verdana" font-size="12">num_order</text>
	<line x1="140" y1="198" x2="208" y2="198" stroke="#000000" stroke-width="1"/>
	<text x="140" y="212.8" fill="#000000" font-family="Verdana" font-size="12">num_invoice</text>
	<text x="140" y="229.8" fill="#000000" font-family="Verdana" font-size="12">status</text>
	<text x="140" y="246.8" fill="#000000" font-family="Verdana" font-size="12">created_at</text>
	<text x="140" y="263.8" fill="#000000" font-family="Verdana" font-size="12">updated_at</text>
</g>

<!-- Entity PRODUCT -->
<g>
	<g>
		<rect x="318" y="144" width="92" height="25" fill="#fdb863" stroke="none" stroke-width="0" opacity="1"/>
		<rect x="318" y="169" width="92" height="111" fill="#fee0b6" stroke="none" stroke-width="0" opacity="1"/>
		<rect x="318" y="144" width="92" height="136" fill="none" stroke="#e08214" stroke-width="2" opacity="1"/>
		<line x1="318" y1="169" x2="410" y2="169" stroke="#e08214" stroke-width="1"/>
	</g>
	<text x="341" y="161.75" fill="#000000" font-family="Verdana" font-size="12">Product</text>
	<text x="323" y="186.8" fill="#000000" font-family="Verdana" font-size="12">num_product</text>
	<line x1="323" y1="189" x2="404" y2="189" stroke="#000000" stroke-width="1"/>
	<text x="323" y="203.8" fill="#000000" font-family="Verdana" font-size="12">name</text>
	<text x="323" y="220.8" fill="#000000" font-family="Verdana" font-size="12">quantity</text>
	<text x="323" y="237.8" fill="#000000" font-family="Verdana" font-size="12">status</text>
	<text x="323" y="254.8" fill="#000000" font-family="Verdana" font-size="12">created_at</text>
	<text x="323" y="271.8" fill="#000000" font-family="Verdana" font-size="12">updated_at</text>
</g>
</svg>